HIERARCHY
ROOT hip
{
  OFFSET 0 0 0
  CHANNELS 6 Xposition Yposition Zposition Zrotation Yrotation Xrotation
  JOINT abdomen
  {
    OFFSET 0 20.6881 -0.73152
    CHANNELS 3 Zrotation Xrotation Yrotation
    JOINT chest
    {
      OFFSET 0 11.7043 -0.48768
      CHANNELS 3 Zrotation Xrotation Yrotation
      JOINT neck
      {
        OFFSET 0 22.1894 -2.19456
        CHANNELS 3 Zrotation Xrotation Yrotation
        JOINT head
        {
          OFFSET -0.24384 7.07133 1.2192
          CHANNELS 3 Zrotation Xrotation Yrotation
          JOINT leftEye
          {
            OFFSET 4.14528 8.04674 8.04672
            CHANNELS 3 Zrotation Xrotation Yrotation
            End Site
            {
              OFFSET 1 0 0
            }
          }
          JOINT rightEye
          {
            OFFSET -3.6576 8.04674 8.04672
            CHANNELS 3 Zrotation Xrotation Yrotation
            End Site
            {
              OFFSET 1 0 0
            }
          }
        }
      }
      JOINT rCollar
      {
        OFFSET -2.68224 19.2634 -4.8768
        CHANNELS 3 Zrotation Xrotation Yrotation
        JOINT rShldr
        {
          OFFSET -8.77824 -1.95073 1.46304
          CHANNELS 3 Zrotation Xrotation Yrotation
          JOINT rForeArm
          {
            OFFSET -28.1742 -1.7115 0.48768
            CHANNELS 3 Zrotation Xrotation Yrotation
            JOINT rHand
            {
              OFFSET -22.5879 0.773209 7.07136
              CHANNELS 3 Zrotation Xrotation Yrotation
              JOINT rThumb1
              {
                OFFSET -1.2192 -0.487915 3.41376
                CHANNELS 3 Zrotation Xrotation Yrotation
                JOINT rThumb2
                {
                  OFFSET -3.37035 -0.52449 3.41376
                  CHANNELS 3 Zrotation Xrotation Yrotation
                  End Site
                  {
                    OFFSET -1.78271 -1.18214 1.43049
                  }
                }
              }
              JOINT rIndex1
              {
                OFFSET -7.75947 0.938293 5.60832
                CHANNELS 3 Zrotation Xrotation Yrotation
                JOINT rIndex2
                {
                  OFFSET -2.54057 -0.884171 1.56538
                  CHANNELS 3 Zrotation Xrotation Yrotation
                  End Site
                  {
                    OFFSET -1.62519 -0.234802 1.16502
                  }
                }
              }
              JOINT rMid1
              {
                OFFSET -8.24714 1.18213 3.41376
                CHANNELS 3 Zrotation Xrotation Yrotation
                JOINT rMid2
                {
                  OFFSET -3.10165 -0.590103 1.0647
                  CHANNELS 3 Zrotation Xrotation Yrotation
                  End Site
                  {
                    OFFSET -2.48547 -0.328903 0.83742
                  }
                }
              }
              JOINT rRing1
              {
                OFFSET -8.82822 0.546677 1.51678
                CHANNELS 3 Zrotation Xrotation Yrotation
                JOINT rRing2
                {
                  OFFSET -2.60934 -0.819778 -0.0198488
                  CHANNELS 3 Zrotation Xrotation Yrotation
                  End Site
                  {
                    OFFSET -2.33842 -0.294052 0.168128
                  }
                }
              }
              JOINT rPinky1
              {
                OFFSET -8.27202 -0.0477905 -0.4584
                CHANNELS 3 Zrotation Xrotation Yrotation
                JOINT rPinky2
                {
                  OFFSET -1.82734 -0.647385 -0.700984
                  CHANNELS 3 Zrotation Xrotation Yrotation
                  End Site
                  {
                    OFFSET -1.69225 -0.51767 -0.607171
                  }
                }
              }
            }
          }
        }
      }
      JOINT lCollar
      {
        OFFSET 2.68224 19.2634 -4.8768
        CHANNELS 3 Zrotation Xrotation Yrotation
        JOINT lShldr
        {
          OFFSET 8.77824 -1.95073 1.46304
          CHANNELS 3 Zrotation Xrotation Yrotation
          JOINT lForeArm
          {
            OFFSET 28.1742 -1.7115 0.48768
            CHANNELS 3 Zrotation Xrotation Yrotation
            JOINT lHand
            {
              OFFSET 22.5879 0.773209 7.07136
              CHANNELS 3 Zrotation Xrotation Yrotation
              JOINT lThumb1
              {
                OFFSET 1.2192 -0.487915 3.41376
                CHANNELS 3 Zrotation Xrotation Yrotation
                JOINT lThumb2
                {
                  OFFSET 3.37035 -0.52449 3.41376
                  CHANNELS 3 Zrotation Xrotation Yrotation
                  End Site
                  {
                    OFFSET 1.78271 -1.18214 1.43049
                  }
                }
              }
              JOINT lIndex1
              {
                OFFSET 7.75947 0.938293 5.60832
                CHANNELS 3 Zrotation Xrotation Yrotation
                JOINT lIndex2
                {
                  OFFSET 2.54057 -0.884171 1.56538
                  CHANNELS 3 Zrotation Xrotation Yrotation
                  End Site
                  {
                    OFFSET 1.62519 -0.234802 1.16502
                  }
                }
              }
              JOINT lMid1
              {
                OFFSET 8.24714 1.18213 3.41376
                CHANNELS 3 Zrotation Xrotation Yrotation
                JOINT lMid2
                {
                  OFFSET 3.10165 -0.590103 1.0647
                  CHANNELS 3 Zrotation Xrotation Yrotation
                  End Site
                  {
                    OFFSET 2.48547 -0.328903 0.83742
                  }
                }
              }
              JOINT lRing1
              {
                OFFSET 8.82822 0.546677 1.51678
                CHANNELS 3 Zrotation Xrotation Yrotation
                JOINT lRing2
                {
                  OFFSET 2.60934 -0.819778 -0.0198488
                  CHANNELS 3 Zrotation Xrotation Yrotation
                  End Site
                  {
                    OFFSET 2.33842 -0.294052 0.168128
                  }
                }
              }
              JOINT lPinky1
              {
                OFFSET 8.27202 -0.0477905 -0.4584
                CHANNELS 3 Zrotation Xrotation Yrotation
                JOINT lPinky2
                {
                  OFFSET 1.82734 -0.647385 -0.700984
                  CHANNELS 3 Zrotation Xrotation Yrotation
                  End Site
                  {
                    OFFSET 1.69225 -0.51767 -0.607171
                  }
                }
              }
            }
          }
        }
      }
    }
  }
  JOINT rButtock
  {
    OFFSET -8.77824 4.35084 1.2192
    CHANNELS 3 Zrotation Xrotation Yrotation
    JOINT rThigh
    {
      OFFSET 0 -1.70687 -2.19456
      CHANNELS 3 Zrotation Xrotation Yrotation
      JOINT rShin
      {
        OFFSET 0 -36.8199 0.73152
        CHANNELS 3 Zrotation Xrotation Yrotation
        JOINT rFoot
        {
          OFFSET 0.73152 -45.1104 -5.12064
          CHANNELS 3 Zrotation Xrotation Yrotation
          End Site
          {
            OFFSET -1.1221 -3.69964 12.103
          }
        }
      }
    }
  }
  JOINT lButtock
  {
    OFFSET 8.77824 4.35084 1.2192
    CHANNELS 3 Zrotation Xrotation Yrotation
    JOINT lThigh
    {
      OFFSET 0 -1.70687 -2.19456
      CHANNELS 3 Zrotation Xrotation Yrotation
      JOINT lShin
      {
        OFFSET 0 -36.8199 0.73152
        CHANNELS 3 Zrotation Xrotation Yrotation
        JOINT lFoot
        {
          OFFSET -0.73152 -45.1104 -5.12064
          CHANNELS 3 Zrotation Xrotation Yrotation
          End Site
          {
            OFFSET 1.1221 -3.69964 12.103
          }
        }
      }
    }
  }
}
MOTION
Frames:	5
Frame Time:	0.03333
0.0 0.0 0.0 0.0 0.0 0.0 0.0 0.0 0.0 0.0 0.0 0.0 0.0 0.0 0.0 0.0 0.0 0.0 0.0 0.0 0.0 0.0 0.0 0.0 0.0 0.0 0.0 0.0 0.0 0.0 0.0 0.0 0.0 0.0 0.0 0.0 0.0 0.0 0.0 0.0 0.0 0.0 0.0 0.0 0.0 0.0 0.0 0.0 0.0 0.0 0.0 0.0 0.0 0.0 0.0 0.0 0.0 0.0 0.0 0.0 0.0 0.0 0.0 0.0 0.0 0.0 0.0 0.0 0.0 0.0 0.0 0.0 0.0 0.0 0.0 0.0 0.0 0.0 0.0 0.0 0.0 0.0 0.0 0.0 0.0 0.0 0.0 0.0 0.0 0.0 0.0 0.0 0.0 0.0 0.0 0.0 0.0 0.0 0.0 0.0 0.0 0.0 0.0 0.0 0.0 0.0 0.0 0.0 0.0 0.0 0.0 0.0 0.0 0.0 0.0 0.0 0.0 0.0 0.0 0.0 0.0 0.0 0.0 0.0 0.0 0.0 0.0 0.0 0.0 0.0 0.0 0.0
-0.3198 69.7279 -2.2195 -178.57504 -25.077053 -176.546455 0.080011 -1.725288 -51.058613 6.395891 -7.755664 52.028631 -8.855041 24.043121 -144.541624 5.035164 31.247425 112.872726 0.003897 0.0 0.001253 -0.002699 0.0 -0.00345 -157.881545 -65.637962 175.444041 9.394861 13.475848 4.041613 -38.787971 18.312969 -172.895715 154.150131 -72.013328 132.081897 4.531532 -4.513842 -0.520174 58.960548 -80.72123 -6.86315 -141.997245 -0.613975 116.932357 -92.307246 55.665108 71.755176 -0.05763 0.167795 0.03299 -172.067752 -31.345047 144.109699 -145.119149 0.267643 -179.212682 -150.356589 -35.132824 -173.020934 -139.796683 -3.002421 -136.92624 -80.467429 -52.597559 -80.273697 -2.459845 -18.216319 3.669527 5.283495 14.01639 -24.727096 107.676697 -53.803705 -68.441377 -146.646112 -65.39116 -125.134367 8.902297 8.487307 -2.00908 146.136795 -52.282248 -114.1817 108.429037 34.162094 -91.743142 166.425601 -14.912893 -116.22577 167.298831 -27.767202 -145.261359 -3.086581 0.16756 -0.368465 -0.003389 0.876268 -0.276564 55.714258 -86.722074 77.160665 145.176569 12.0668 141.823317 147.336228 11.049425 141.542043 -4.2e-05 3.3e-05 2.1e-05 -28.242626 -42.80591 -105.927076 -79.233851 28.648361 121.148954 -162.819453 -1.370295 58.337653 -2.6e-05 3.3e-05 3.4e-05 9.481159 -30.290692 18.319904 -27.358644 62.770567 -147.989077 46.988537 39.50979 171.712523
-0.3501 69.7843 -3.0947999999999998 -178.662081 -25.239102 -176.736813 -1.124557 -1.539834 -12.389212 1.474491 -10.4498 12.329565 3.395417 21.218225 137.011818 -18.752344 16.105978 -169.873943 -0.000509 -0.0 0.002569 -0.000509 -0.0 0.002569 -158.416131 -29.366112 166.795136 -81.743027 82.853606 91.869615 159.649637 -83.747906 -4.382288 -173.41029 3.495655 141.892409 -2.608554 2.554491 0.45773 -93.872811 16.068905 86.278424 -108.428166 34.160459 91.742262 -104.262853 50.574648 79.124788 -129.363321 47.296902 118.700071 -163.27791 -5.29451 143.120471 -0.001698 -0.018626 -0.005183 -156.361334 -20.598382 174.269411 -80.937645 -51.22678 -79.360283 -84.404 -52.932751 -84.869359 0.049188 0.292236 -0.066326 -50.417043 -67.611868 -51.680726 111.606221 82.850814 121.20852 6.10233 4.188922 1.673858 -5.436363 -5.421273 0.582096 145.35504 -55.384818 -124.465902 160.407871 -33.696425 -122.707341 17.888517 42.678558 -8.945684 151.476457 17.841362 -137.537874 163.954416 -7.057997 -143.208165 73.161936 -72.144656 90.197125 147.378981 -45.66269 176.046813 5.51583 -12.596554 5.173545 127.082449 -30.960128 125.735442 -0.003626 0.001089 -0.001813 -23.979671 -39.332792 -16.121525 41.947004 55.647857 2.070993 -26.358666 16.169755 -56.708586 -179.99491 75.749013 -0.002605 -166.66401 45.368337 -9.388485 -40.479525 45.450671 -28.998729 172.566761 16.918959 -90.217501
-0.42719999999999997 69.50150000000001 -3.4277 -178.794504 -25.801672 -176.755561 -0.846716 -2.394869 -19.47782 2.30122 -9.95524 18.868214 -1.223895 24.611181 169.367376 -13.143025 24.697141 157.215717 0.004058 -0.0 -0.000306 -0.001557 -0.0 0.000382 -157.323695 -17.489012 164.608553 -166.256851 -0.448654 176.136013 172.164656 5.091263 18.005426 -172.795811 13.161491 141.168018 83.253713 -50.258049 33.616357 -118.052986 32.138183 81.657795 -140.164713 2.326614 115.878305 -49.170018 54.544646 32.660635 5.893591 -18.351919 -2.543304 -42.133487 58.543489 36.100732 0.002807 1.771171 0.557935 7.698479 23.990125 3.529395 32.019258 83.320674 6.225269 14.431365 41.886168 7.185583 -1.671357 -11.458647 2.379722 73.090978 62.099191 -77.754214 -3.126726 -46.31597 -123.042215 8.394374 8.644965 1.366116 103.199338 36.331614 -60.111822 -162.514806 -43.565045 -72.561965 138.493675 4.895763 -114.863747 -142.908373 -66.403829 -86.831353 10.97639 25.789764 -7.640224 144.386196 37.243399 -131.626068 145.101319 -1.522715 178.649019 154.03579 -12.51781 177.504907 126.796846 -26.618503 124.511509 154.541439 36.403896 146.292602 179.978224 75.749019 0.017917 159.925545 34.820699 0.0 25.823255 60.030573 87.989424 -100.224696 -26.73163 -178.253565 -179.989523 75.749019 -0.007168 -165.935641 42.952957 -180.0 14.085701 -61.010199 -94.466629 -125.056133 29.036693 14.127421
-0.39309999999999995 69.03970000000001 -3.5602 -178.834708 -26.457563 -176.912908 -0.173441 -6.841604 -148.73463 4.597453 3.962479 147.33221 5.205675 14.710462 94.814118 -16.794905 0.023759 -133.072574 0.000909 -0.0 -0.004363 0.000105 -0.0 -0.00306 3.284869 -26.94203 -5.275374 96.058577 -79.434558 76.115765 90.495131 -56.922285 -88.699509 -158.898964 45.007784 132.141779 -85.829278 38.630122 47.955553 -15.886876 -9.488184 30.789045 -14.227438 19.20414 9.558507 -0.098236 12.72184 2.126409 6.909273 -21.623949 -2.809421 -161.317522 1.350755 142.586542 -145.11815 0.310015 -179.225911 -151.057003 -32.037884 -173.804882 -161.706145 70.564447 -151.024114 -81.312148 -53.103426 -79.937269 -3.534578 -62.111189 13.059037 -71.466725 -65.014924 -52.609001 6.916821 -2.726157 156.142259 -175.338849 -21.985775 -143.213543 7.758798 7.439074 -1.681433 89.319058 15.77757 -82.782175 -10.212869 -18.050332 4.563389 4.981542 23.538312 -6.394895 161.519809 -9.304253 -143.624809 150.600466 26.80318 -136.053116 0.013649 -1.32312 0.41611 155.322247 -1.335619 -172.010724 80.938369 -51.226798 79.360019 146.400818 11.605306 142.695804 -0.001029 -0.000416 0.001323 -21.490756 -37.061505 -13.696625 40.243642 60.393267 133.37927 90.689077 -1.091707 -179.711618 179.969406 75.749493 0.025172 -166.264251 42.326639 160.048614 58.953724 -45.62663 112.829731 -74.74345 52.982564 -176.774496
